<?xml version="1.0" encoding="UTF-8"?>
<svg id="Layer_1" data-name="Layer 1" xmlns="http://www.w3.org/2000/svg" viewBox="0 0 1000 212">
  <defs>
    <style>
      .cls-1 {
        fill: #ededed;
        stroke-width: 0px;
      }
    </style>
  </defs>
  <path class="cls-1" d="M164.69,49.13c-8.22-15.8-19.95-27.93-35.19-36.42C114.25,4.23,96.06-.02,74.91-.02H0v212h74.2c21.43,0,39.82-4.25,55.16-12.74s27.11-20.65,35.33-36.49c8.21-15.84,12.32-34.81,12.32-56.91s-4.11-40.9-12.32-56.7ZM127.02,144.82c-4.63,10.15-11.54,17.64-20.74,22.48-9.21,4.84-20.61,7.25-34.2,7.25h-28.89V37.39h29.17c13.5,0,24.8,2.42,33.92,7.25,9.1,4.84,16,12.31,20.67,22.41,4.67,10.11,7.01,23.03,7.01,38.77s-2.32,28.84-6.94,38.99Z"/>
  <path class="cls-1" d="M186.33,211.98V-.02h141.18v36h-97.99v51.22h90.62v35.43h-90.62v53.36h98.27v36h-141.46Z"/>
  <path class="cls-1" d="M334.93,211.98V-.02h141.18v36h-97.99v51.22h90.62v35.43h-90.62v53.36h98.27v36h-141.46Z"/>
  <path class="cls-1" d="M633.42,34.48c-5.9-10.77-14.47-19.21-25.7-25.33C596.49,3.03,582.85-.02,566.8-.02h-82.27v212h43.19v-69.29h38.09c16.23,0,30.04-3.01,41.42-9.04,11.37-6.02,20.05-14.37,26.05-25.04,5.99-10.67,8.99-23.02,8.99-37.07s-2.95-26.3-8.85-37.06ZM593.49,90.33c-2.79,5.41-7.03,9.65-12.74,12.73-5.72,3.08-13.01,4.62-21.88,4.62h-31.15V35.83h31.01c8.87,0,16.19,1.5,21.94,4.48,5.76,2.99,10.03,7.16,12.82,12.52,2.78,5.37,4.18,11.6,4.18,18.71s-1.4,13.38-4.18,18.79Z"/>
  <path class="cls-1" d="M738.32-.02h-56.64l-72.08,212h47.72l15.67-49.23h74.95l16.29,49.23h48.01L738.32-.02ZM683.82,128.74l6.07-19.07c3.87-12.89,7.77-27.24,11.69-43.04,2.54-10.25,5.21-21.1,8.01-32.57,2.89,11.36,5.69,22.13,8.41,32.28,4.2,15.69,8.33,30.13,12.39,43.32l6.31,19.07h-52.88Z"/>
  <path class="cls-1" d="M1000,212h-51.11l-59.99-91.65-27.95,31.1v60.55h-43.19V0h43.19v57.91l-.63,48.14c.68-1.13,1.37-2.23,2.05-3.32,4.15-6.64,8.73-13.3,13.73-20,5-6.68,10.71-13.97,17.14-21.84L944.92,0h52.82l-78.87,91.72,81.13,120.28Z"/>
</svg>