<?xml version="1.0" encoding="UTF-8"?>
<svg id="Layer_1" data-name="Layer 1" xmlns="http://www.w3.org/2000/svg" viewBox="0 0 1840 200">
  <defs>
    <style>
      .cls-1 {
        fill: #ededed;
        stroke-width: 0px;
      }
    </style>
  </defs>
  <path class="cls-1" d="M0,3.96h61.88c25.98,0,47.68,8.05,65.11,24.14,17.43,16.09,26.14,38.04,26.14,65.83v12.14c0,27.7-8.71,49.63-26.14,65.77-17.43,16.14-39.13,24.21-65.11,24.21H0V3.96ZM61.61,172.03c18.02,0,32.43-5.72,43.22-17.15,10.79-11.43,16.19-27.62,16.19-48.55v-12.67c0-20.93-5.4-37.11-16.19-48.55-10.79-11.43-25.2-17.15-43.22-17.15h-30.05v144.06h30.05Z"/>
  <path class="cls-1" d="M164.17,3.96h128.43v24.14h-96.87v56.99h84.39v24.01h-84.39v62.8h98.25v24.14h-129.8V3.96Z"/>
  <path class="cls-1" d="M305.29,3.96h128.43v24.14h-96.87v56.99h84.39v24.01h-84.39v62.8h98.25v24.14h-129.8V3.96Z"/>
  <path class="cls-1" d="M446.42,3.96h69.43c22.41,0,39.63,5.32,51.66,15.96,12.03,10.64,18.04,25.15,18.04,43.54s-6.02,32.98-18.04,43.8c-12.03,10.82-29.25,16.23-51.66,16.23h-37.87v72.56h-31.56V3.96ZM514.61,99.47c14.63,0,24.86-3.41,30.67-10.22,5.81-6.81,8.71-15.41,8.71-25.79s-2.91-18.89-8.71-25.53c-5.81-6.64-16.03-9.96-30.67-9.96h-36.64v71.5h36.64Z"/>
  <path class="cls-1" d="M624.34,2.77h30.6l76.43,193.27h-33.48l-53.65-141.95c-1.1-2.99-2.04-5.85-2.81-8.58-.78-2.72-1.49-5.5-2.13-8.31h-1.23c-.64,2.82-1.35,5.61-2.13,8.38-.78,2.77-1.72,5.61-2.81,8.51l-54.06,141.95h-30.6L624.34,2.77ZM593.19,124.54h92.07l8.51,24.01h-109.22l8.64-24.01Z"/>
  <path class="cls-1" d="M742.66,3.96h31.56v89.45L857.78,3.96h36.5l-120.06,126.12v65.96h-31.56V3.96ZM788.07,98.81l20.31-21.5,93.44,118.73h-38.69l-75.06-97.23Z"/>
  <path class="cls-1" d="M959.07,93.93c0-29.9,8-53.03,24.01-69.39,16.01-16.36,36.86-24.54,62.57-24.54,23.23,0,41.53,5.83,54.89,17.48,13.35,11.65,20.54,25.66,21.54,42.02l.14,1.58h-31.7v-1.32c0-8.62-3.93-16.6-11.8-23.95-7.87-7.34-19.12-11.02-33.75-11.02-16.28,0-29.32,5.92-39.11,17.74-9.79,11.83-14.68,28.48-14.68,49.93v15.04c0,21.64,5.01,38.32,15.02,50.07,10.02,11.74,23.99,17.61,41.92,17.61,9.33,0,17.33-.92,24.01-2.77,6.68-1.85,13.08-4.84,19.21-8.97v-41.29h-45.97v-23.88h76.84v75.86c-6.5,6.42-16.01,12.33-28.54,17.74-12.53,5.41-27.72,8.11-45.55,8.11-27.35,0-49.03-8.18-65.04-24.54-16.01-16.36-24.01-39.49-24.01-69.39v-12.14Z"/>
  <path class="cls-1" d="M1133.83,93.93c0-29.9,8.03-53.03,24.08-69.39,16.05-16.36,36.7-24.54,61.95-24.54s45.94,8.18,62.09,24.54c16.14,16.36,24.22,39.49,24.22,69.39v12.14c0,29.9-8.07,53.03-24.22,69.39-16.15,16.36-36.84,24.54-62.09,24.54s-45.9-8.18-61.95-24.54c-16.05-16.36-24.08-39.49-24.08-69.39v-12.14ZM1180.68,157.45c9.83,11.83,22.89,17.74,39.17,17.74s29.36-5.91,39.24-17.74c9.88-11.83,14.82-28.56,14.82-50.2v-14.51c0-21.64-4.94-38.37-14.82-50.2-9.88-11.83-22.96-17.74-39.24-17.74s-29.34,5.92-39.17,17.74c-9.83,11.83-14.75,28.56-14.75,50.2v14.51c0,21.63,4.92,38.37,14.75,50.2Z"/>
  <path class="cls-1" d="M1318.19,3.96h68.74c20.76,0,37.09,4.11,48.99,12.34,11.89,8.22,17.84,21.09,17.84,38.59,0,10.55-2.7,19.15-8.1,25.79-5.4,6.64-12.07,11.33-20.03,14.05v.53c9.79,2.73,17.81,7.89,24.08,15.5,6.26,7.61,9.4,17.57,9.4,29.88,0,17.59-6.24,31.22-18.73,40.9-12.49,9.68-28.93,14.51-49.33,14.51h-72.86V3.96ZM1386.66,84.83c12.71,0,21.86-2.55,27.44-7.65,5.58-5.1,8.37-12.22,8.37-21.37s-2.79-16.05-8.37-20.98c-5.58-4.92-14.73-7.39-27.44-7.39h-37.32v57.39h37.32ZM1390.64,172.56c12.81,0,22.18-2.95,28.13-8.84,5.95-5.89,8.92-13.81,8.92-23.75s-2.97-17.83-8.92-23.68c-5.95-5.85-15.32-8.77-28.13-8.77h-41.3v65.04h41.3Z"/>
  <path class="cls-1" d="M1528.66,2.77h30.6l76.43,193.27h-33.48l-53.65-141.95c-1.1-2.99-2.04-5.85-2.81-8.58-.78-2.72-1.49-5.5-2.13-8.31h-1.23c-.64,2.82-1.35,5.61-2.13,8.38-.78,2.77-1.72,5.61-2.81,8.51l-54.06,141.95h-30.6L1528.66,2.77ZM1497.51,124.54h92.07l8.51,24.01h-109.22l8.64-24.01Z"/>
  <path class="cls-1" d="M1646.98,3.96h67.65c22.04,0,39.11,5.19,51.18,15.57,12.07,10.38,18.11,24.49,18.11,42.35s-6.06,31.99-18.18,42.68c-12.12,10.69-29.16,16.03-51.11,16.03h-36.09v75.46h-31.56V3.96ZM1714.07,96.83c14.27,0,24.22-3.32,29.84-9.96,5.63-6.64,8.44-14.97,8.44-25s-2.81-18.12-8.44-24.54c-5.63-6.42-15.57-9.63-29.84-9.63h-35.54v69.13h35.54ZM1710.78,107.39l32.11-3.17,51.32,91.82h-35.26l-48.16-88.65Z"/>
  <path class="cls-1" d="M1808.3,3.96h31.7v192.08h-31.7V3.96Z"/>
</svg>