<?xml version="1.0" encoding="UTF-8"?>
<svg id="Layer_1" data-name="Layer 1" xmlns="http://www.w3.org/2000/svg" viewBox="0 0 1000 212">
  <defs>
    <style>
      .cls-1 {
        fill: #ededed;
        stroke-width: 0px;
      }
    </style>
  </defs>
  <path class="cls-1" d="M190.32,99.21v25.76c0,18.11-3.92,33.65-11.76,46.63-7.83,12.99-18.59,22.96-32.28,29.93-13.69,6.98-29.36,10.46-47.01,10.46-19.73,0-37.03-4.28-51.9-12.82-14.87-8.54-26.48-20.74-34.83-36.58C4.18,146.76,0,127.98,0,106.28s4.35-41.45,13.03-57.29c8.69-15.84,20.44-27.97,35.26-36.38C63.11,4.21,79.77,0,98.28,0c11.89,0,22.96,1.68,33.2,5.06,10.24,3.38,19.35,8.15,27.33,14.34,7.98,6.19,14.49,13.51,19.54,21.97s8.33,17.8,9.84,28.05h-43.89c-1.51-4.99-3.61-9.44-6.3-13.37s-5.95-7.28-9.78-10.05c-3.82-2.77-8.19-4.87-13.09-6.3-4.91-1.43-10.29-2.15-16.15-2.15-10.85,0-20.44,2.66-28.74,7.98-8.31,5.31-14.78,13.04-19.4,23.2-4.63,10.17-6.94,22.55-6.94,37.14s2.29,27,6.87,37.2c4.58,10.21,11.02,18,19.33,23.35,8.3,5.36,18.12,8.04,29.45,8.04,10.2,0,18.93-1.81,26.2-5.41,7.26-3.6,12.86-8.75,16.78-15.45,3.73-6.38,5.68-13.79,5.85-22.23h-45.86v-32.14h87.8Z"/>
  <path class="cls-1" d="M297.27,212c-18.6,0-35.33-4.16-50.2-12.47s-26.62-20.37-35.26-36.16c-8.64-15.8-12.96-34.87-12.96-57.23s4.32-41.59,12.96-57.43c8.64-15.84,20.39-27.92,35.26-36.23S278.67,0,297.27,0s35.45,4.16,50.27,12.47c14.82,8.31,26.55,20.39,35.19,36.23,8.64,15.84,12.96,34.99,12.96,57.43s-4.32,41.43-12.96,57.23c-8.64,15.8-20.37,27.85-35.19,36.16-14.82,8.31-31.58,12.47-50.27,12.47ZM297.27,174.45c10.95,0,20.51-2.61,28.67-7.83,8.16-5.22,14.51-12.93,19.05-23.14,4.53-10.21,6.8-22.66,6.8-37.34s-2.27-27.41-6.8-37.62c-4.53-10.21-10.88-17.92-19.05-23.14-8.17-5.22-17.72-7.83-28.67-7.83s-20.39,2.63-28.6,7.9c-8.21,5.27-14.58,13-19.12,23.21-4.53,10.21-6.8,22.7-6.8,37.48s2.27,27.11,6.8,37.27c4.53,10.16,10.9,17.87,19.12,23.14,8.21,5.27,17.75,7.9,28.6,7.9Z"/>
  <path class="cls-1" d="M407.49,212.85V.85h83.69c15.48,0,28.39,2.35,38.73,7.04s18.08,11.12,23.22,19.28c5.14,8.16,7.72,17.55,7.72,28.17,0,8.35-1.65,15.63-4.96,21.84-3.31,6.21-7.81,11.29-13.52,15.22-5.71,3.94-12.2,6.76-19.47,8.47v2.13c7.93.28,15.41,2.54,22.44,6.76,7.03,4.22,12.74,10.1,17.13,17.64,4.39,7.54,6.58,16.53,6.58,26.96,0,11.19-2.74,21.2-8.21,30.02-5.48,8.82-13.57,15.77-24.28,20.84-10.72,5.08-24.05,7.61-40,7.61h-89.07ZM450.68,89.92h34.13c6.14,0,11.66-1.11,16.57-3.34,4.91-2.23,8.75-5.41,11.54-9.53,2.78-4.13,4.18-9.04,4.18-14.73,0-7.68-2.71-13.94-8.14-18.78-5.43-4.84-13.19-7.26-23.29-7.26h-34.98v53.64ZM450.68,177.14h37.38c12.65,0,21.9-2.47,27.75-7.4,5.85-4.93,8.78-11.43,8.78-19.49,0-5.98-1.44-11.26-4.32-15.86-2.88-4.6-6.96-8.2-12.25-10.81-5.29-2.61-11.56-3.91-18.83-3.91h-38.52v57.48Z"/>
  <path class="cls-1" d="M693.09.85h-56.64l-72.08,212h47.72l15.68-49.23h74.94l16.29,49.23h48L693.09.85ZM638.59,129.62l6.07-19.06c3.87-12.9,7.76-27.25,11.68-43.05,2.54-10.24,5.21-21.09,8.01-32.55,2.9,11.36,5.7,22.12,8.42,32.26,4.2,15.69,8.33,30.14,12.39,43.33l6.31,19.06h-52.88Z"/>
  <path class="cls-1" d="M899.29,130.18c.8-.34,1.58-.69,2.36-1.06,11.37-5.37,20.05-13.09,26.05-23.2,5.99-10.1,8.99-22.13,8.99-36.06s-2.95-26.08-8.85-36.42c-5.9-10.34-14.47-18.36-25.7-24.04-11.23-5.7-24.87-8.54-40.92-8.54h-82.27v212h43.19v-75.69h33.87l40.33,75.69h47.86l-44.91-82.67ZM822.14,36.7h31.01c8.87,0,16.16,1.29,21.87,3.85,5.72,2.56,9.99,6.28,12.82,11.16,2.83,4.89,4.25,10.94,4.25,18.15s-1.42,12.92-4.25,17.71c-2.83,4.79-7.08,8.39-12.74,10.81-5.67,2.42-12.94,3.63-21.81,3.63h-31.15V36.7Z"/>
  <path class="cls-1" d="M1000,0v212h-43.19V0h43.19Z"/>
</svg>