<?xml version="1.0" encoding="utf-8"?>
<!-- Generator: Adobe Illustrator 28.2.0, SVG Export Plug-In . SVG Version: 6.00 Build 0)  -->
<svg version="1.1" id="Layer_1" xmlns="http://www.w3.org/2000/svg" xmlns:xlink="http://www.w3.org/1999/xlink" x="0px" y="0px"
	 viewBox="0 0 96 96" style="enable-background:new 0 0 96 96;" xml:space="preserve">
<style type="text/css">
	.st0{fill:#FD366E;}
</style>
<g>
	<path class="st0" d="M88,65.6v17.6H43.2c-13.1,0-24.5-7.1-30.6-17.6c-0.9-1.5-1.7-3.1-2.3-4.8C9,57.6,8.2,54,8,50.4v-4.8
		c0.1-0.8,0.1-1.6,0.2-2.4c0.2-1.6,0.6-3.2,1-4.8C13.4,23.6,27,12.7,43.2,12.7s29.8,10.8,33.9,25.7H58c-3.1-4.8-8.6-8-14.8-8
		s-11.6,3.2-14.8,8c-1,1.5-1.7,3.1-2.2,4.8c-0.4,1.5-0.7,3.1-0.7,4.8c0,5.1,2.1,9.6,5.5,12.8c3.2,3,7.4,4.8,12.1,4.8H88z"/>
	<path class="st0" d="M88,43.2v17.6H55.3c3.4-3.2,5.5-7.8,5.5-12.8c0-1.7-0.2-3.3-0.7-4.8H88z"/>
</g>
</svg>
