<?xml version="1.0" encoding="utf-8"?>
<!-- Generator: Adobe Illustrator 28.2.0, SVG Export Plug-In . SVG Version: 6.00 Build 0)  -->
<svg version="1.1" id="Layer_1" xmlns="http://www.w3.org/2000/svg" xmlns:xlink="http://www.w3.org/1999/xlink" x="0px" y="0px"
	 viewBox="0 0 96 96" style="enable-background:new 0 0 96 96;" xml:space="preserve">
<style type="text/css">
	.st0{fill:#01579B;}
	.st1{fill:#FF6D00;}
</style>
<path class="st0" d="M67.9,45.2c-2.1-1.7-5-2.7-8.1-2.7c-3.1,0-5.9,1-8.1,2.7c-2.2,1.7-3.6,4.1-3.7,6.8c-0.2,2.8,1,5.4,3.1,7.3
	c2.2,2,5.2,3.2,8.7,3.2c3.4,0,6.5-1.2,8.6-3.2c2.1-1.9,3.3-4.5,3.2-7.3C71.5,49.3,70,46.9,67.9,45.2z"/>
<path class="st1" d="M87.8,51.5c-0.5-3.3-1.6-6.4-3.4-9.3c-1.6-2.6-3.7-4.9-6.2-6.8l0,0l-0.1,0c-0.1,0-0.1-0.1-0.1-0.1L52.1,16.1
	c-1.6-1.3-3.9-1-5.1,0.6c-1.3,1.6-1,3.9,0.6,5.1l10.9,8.1h-35c-2.5,0-4.5,2-4.5,4.5c0,2.5,2,4.5,4.5,4.5h13L9.6,61.8
	c-1.9,1.6-2.1,4.5-0.5,6.4c0.9,1,2.2,1.6,3.5,1.6c1,0,2.1-0.4,3-1.1l16.3-14c0,1.5-0.1,2.8-0.1,3.2c0,6.4,7.2,22.8,28.4,22.8
	c15.1,0,27.8-9.1,27.8-24.1C88.1,54.9,88,53.2,87.8,51.5z M76.2,57.4c-0.7,2-1.9,3.8-3.5,5.4c-3.3,3.3-7.9,5.2-12.9,5.2
	c-5,0-9.6-1.8-12.9-5.1c-1.6-1.6-2.8-3.5-3.5-5.4c-0.7-1.9-1-4-0.8-6.1c0.2-2,0.8-4,1.8-5.7c1-1.7,2.3-3.3,3.9-4.6
	c3.2-2.6,7.3-4,11.5-4c4.3,0,8.3,1.4,11.5,3.9c1.6,1.3,3,2.9,3.9,4.6c1,1.7,1.6,3.7,1.8,5.7C77.2,53.4,76.9,55.4,76.2,57.4z"/>
</svg>
