<?xml version="1.0" encoding="utf-8"?>
<!-- Generator: Adobe Illustrator 28.2.0, SVG Export Plug-In . SVG Version: 6.00 Build 0)  -->
<svg version="1.1" id="Layer_1" xmlns="http://www.w3.org/2000/svg" xmlns:xlink="http://www.w3.org/1999/xlink" x="0px" y="0px"
	 viewBox="0 0 96 96" style="enable-background:new 0 0 96 96;" xml:space="preserve">
<style type="text/css">
	.st0{fill-rule:evenodd;clip-rule:evenodd;fill:#00549D;}
	.st1{fill-rule:evenodd;clip-rule:evenodd;fill:#0086D4;}
	.st2{fill-rule:evenodd;clip-rule:evenodd;fill:#FFFFFF;}
	.st3{fill-rule:evenodd;clip-rule:evenodd;fill:#0075C0;}
</style>
<g>
	<path class="st0" d="M45.9,8.5c1.3-0.7,2.9-0.7,4.2,0c6.4,3.6,25.6,14.4,32,18c1.3,0.7,2.1,2.1,2.1,3.5c0,7.2,0,28.8,0,35.9
		c0,1.5-0.8,2.8-2.1,3.5c-6.4,3.6-25.6,14.4-32,18c-1.3,0.7-2.9,0.7-4.2,0c-6.4-3.6-25.6-14.4-32-18c-1.3-0.7-2.1-2.1-2.1-3.5
		c0-7.2,0-28.8,0-35.9c0-1.5,0.8-2.8,2.1-3.5C20.3,22.9,39.5,12.1,45.9,8.5z"/>
	<path class="st1" d="M12.4,67.8c-0.5-0.7-0.6-1.3-0.6-2.2c0-7.1,0-28.6,0-35.7c0-1.4,0.8-2.8,2.1-3.5c6.4-3.6,25.5-14.3,31.9-17.9
		c1.3-0.7,3-0.7,4.3,0c6.4,3.6,25.5,14.2,31.8,17.8c0.5,0.3,0.9,0.6,1.3,1.1L12.4,67.8z"/>
	<path class="st2" d="M48,21.3c14.7,0,26.7,11.9,26.7,26.7S62.7,74.7,48,74.7S21.3,62.7,21.3,48S33.3,21.3,48,21.3z M48,34.7
		c7.4,0,13.3,6,13.3,13.3c0,7.4-6,13.3-13.3,13.3s-13.3-6-13.3-13.3C34.7,40.6,40.6,34.7,48,34.7z"/>
	<path class="st3" d="M83.2,27.4c1,0.9,1,2.3,1,3.4c0,7.2-0.1,27.8,0,35c0,0.8-0.2,1.5-0.6,2.1L47.2,48L83.2,27.4z"/>
	<path class="st2" d="M61.3,42.3h3.8v11.4h-3.8V42.3z M74.7,42.3h3.8v11.4h-3.8V42.3z"/>
	<path class="st2" d="M57.5,46.1H69v3.8H57.5V46.1z M70.9,46.1h11.4v3.8H70.9V46.1z"/>
</g>
</svg>
