<?xml version="1.0" encoding="utf-8"?>
<!-- Generator: Adobe Illustrator 28.2.0, SVG Export Plug-In . SVG Version: 6.00 Build 0)  -->
<svg version="1.1" id="Layer_1" xmlns="http://www.w3.org/2000/svg" xmlns:xlink="http://www.w3.org/1999/xlink" x="0px" y="0px"
	 viewBox="0 0 96 96" style="enable-background:new 0 0 96 96;" xml:space="preserve">
<style type="text/css">
	.st0{fill:#663399;}
	.st1{fill:#FFFFFF;}
</style>
<g>
	<path id="bg" class="st0" d="M8,8h67.2C82.3,8,88,13.7,88,20.8v54.4C88,82.3,82.3,88,75.2,88H20.8C13.7,88,8,82.3,8,75.2V8z"/>
	<path id="fg" class="st1" d="M36.6,81.6c-5.1,0-8.3-2.9-8.2-8.2V59.9c0-2.7,0.8-4.8,2.4-6.2c2.8-2.7,9.4-2.9,12.2,0
		c1.7,1.5,2.4,4.6,2.2,7.5h-5.9c0-1.1,0-2.8-0.7-3.5c-0.9-1.2-3.1-1-3.8,0.2c-0.4,0.7-0.6,1.6-0.6,2.9v11.7c0,2.5,0.9,3.7,2.6,3.7
		c0.8,0,1.4-0.3,1.8-0.9c0.6-0.7,0.7-2.2,0.6-3.3h5.9C45.6,77.7,42.3,81.7,36.6,81.6L36.6,81.6z M55.4,81.6c-5.7,0.1-8.2-4-8.1-9.5
		h5.6c-0.2,2.4,0.7,4.6,2.6,4.4c0.9,0,1.5-0.3,1.9-0.8c0.7-1,0.8-3.9-0.2-5c-0.7-1.1-3.1-2-4.4-2.7c-1.8-0.9-3.2-1.9-4-3.1
		c-1.8-2.7-1.7-8.6,0.9-11c2.5-3,9-3.1,11.5-0.1c1.5,1.6,2.2,4.6,2.1,7.5h-5.4c0-1.2-0.1-3-0.5-3.7c-0.3-0.6-0.9-0.9-1.8-0.9
		c-1.6,0-2.4,0.9-2.4,2.8c0,2,0.8,2.8,2.6,3.6c2.3,0.9,5.3,2.5,6.4,4.3C65.5,73.2,63.3,81.9,55.4,81.6L55.4,81.6z M73.4,81.6
		c-5.7,0.1-8.2-4-8.1-9.5h5.6c-0.2,2.4,0.7,4.6,2.6,4.4c0.9,0,1.5-0.3,1.9-0.8c0.7-1,0.8-3.9-0.2-5c-0.7-1.1-3.1-2-4.4-2.7
		c-1.8-0.9-3.2-1.9-4-3.1c-1.8-2.7-1.7-8.6,0.9-11c2.5-3,9-3.1,11.5-0.1c1.5,1.6,2.2,4.6,2.1,7.5h-5.4c0-1.2-0.1-3-0.5-3.7
		c-0.3-0.6-0.9-0.9-1.8-0.9c-1.6,0-2.4,0.9-2.4,2.8c0,2,0.8,2.8,2.6,3.6c2.3,0.9,5.3,2.5,6.4,4.3C83.5,73.2,81.2,81.9,73.4,81.6
		L73.4,81.6z"/>
</g>
</svg>
