<?xml version="1.0" encoding="utf-8"?>
<!-- Generator: Adobe Illustrator 28.2.0, SVG Export Plug-In . SVG Version: 6.00 Build 0)  -->
<svg version="1.1" id="Layer_1" xmlns="http://www.w3.org/2000/svg" xmlns:xlink="http://www.w3.org/1999/xlink" x="0px" y="0px"
	 viewBox="0 0 96 96" style="enable-background:new 0 0 96 96;" xml:space="preserve">
<style type="text/css">
	.st0{fill:#1D63ED;}
</style>
<path class="st0" d="M86.8,42.3c-2-1.3-7.1-1.9-10.9-0.9c-0.2-3.7-2.1-6.9-5.6-9.6L69,30.9l-0.9,1.3c-1.7,2.6-2.4,6-2.2,9.2
	c0.2,1.9,0.9,4.1,2.2,5.7c-4.9,2.8-9.4,2.2-29.3,2.2H8c-0.1,4.5,0.6,13.1,6.1,20.2c0.6,0.8,1.3,1.5,2,2.3c4.5,4.5,11.2,7.8,21.3,7.8
	c15.4,0,28.6-8.3,36.6-28.5c2.6,0,9.6,0.5,13-6.1c0.1-0.1,0.9-1.7,0.9-1.7L86.8,42.3L86.8,42.3z M28.1,38.2h-8.6v8.6h8.6V38.2z
	 M39.2,38.2h-8.6v8.6h8.6V38.2z M50.5,38.2h-8.6v8.6h8.6V38.2L50.5,38.2z M61.7,38.2h-8.6v8.6h8.6V38.2z M16.9,38.2H8.2v8.6h8.6
	C16.9,46.8,16.9,38.2,16.9,38.2z M28.1,27.2h-8.6v8.7h8.6V27.2z M39.2,27.2h-8.6v8.7h8.6V27.2z M50.5,27.2h-8.6v8.7h8.6V27.2
	L50.5,27.2z M50.5,16.3h-8.6v8.6h8.6V16.3L50.5,16.3z"/>
</svg>
