<?xml version="1.0" encoding="utf-8"?>
<!-- Generator: Adobe Illustrator 28.2.0, SVG Export Plug-In . SVG Version: 6.00 Build 0)  -->
<svg version="1.1" id="Layer_1" xmlns="http://www.w3.org/2000/svg" xmlns:xlink="http://www.w3.org/1999/xlink" x="0px" y="0px"
	 viewBox="0 0 96 96" style="enable-background:new 0 0 96 96;" xml:space="preserve">
<style type="text/css">
	.st0{fill:#24CB71;}
	.st1{fill:#FF7237;}
	.st2{fill:#00B6FF;}
	.st3{fill:#FF3737;}
	.st4{fill:#874FFF;}
</style>
<g>
	<path class="st0" d="M21.3,74.7c0-7.4,6-13.3,13.3-13.3H48v13.3C48,82,42,88,34.7,88S21.3,82,21.3,74.7z"/>
	<path class="st1" d="M48,8v26.7h13.3c7.4,0,13.3-6,13.3-13.3S68.7,8,61.3,8H48z"/>
	<circle class="st2" cx="61.2" cy="48" r="13.3"/>
	<path class="st3" d="M21.3,21.3c0,7.4,6,13.3,13.3,13.3H48V8H34.7C27.3,8,21.3,14,21.3,21.3z"/>
	<path class="st4" d="M21.3,48c0,7.4,6,13.3,13.3,13.3H48V34.7H34.7C27.3,34.7,21.3,40.6,21.3,48z"/>
</g>
</svg>
