<?xml version="1.0" encoding="utf-8"?>
<!-- Generator: Adobe Illustrator 28.2.0, SVG Export Plug-In . SVG Version: 6.00 Build 0)  -->
<svg version="1.1" id="Layer_1" xmlns="http://www.w3.org/2000/svg" xmlns:xlink="http://www.w3.org/1999/xlink" x="0px" y="0px"
	 viewBox="0 0 96 96" style="enable-background:new 0 0 96 96;" xml:space="preserve">
<style type="text/css">
	.st0{fill:#F4511E;}
</style>
<path class="st0" d="M86.3,44L52,9.7C50.9,8.6,49.5,8,48,8l0,0c-1.5,0-2.9,0.6-4,1.7l-7.4,7.4l8.6,8.6c0.8-0.4,1.7-0.6,2.7-0.6
	c3.6,0,6.3,2.7,6.3,6.3c0,1.1-0.2,1.9-0.6,2.7l8.4,8.4c0.8-0.4,1.7-0.6,2.7-0.6c3.6,0,6.3,2.7,6.3,6.3s-2.7,6.3-6.3,6.3
	s-6.3-2.7-6.3-6.3c0-1.1,0.2-1.9,0.6-2.7l-8.4-8.4c-0.2,0-0.4,0.2-0.6,0.2v21.9c2.5,0.8,4.2,3.2,4.2,5.9c0,3.6-2.7,6.3-6.3,6.3
	c-3.6,0-6.3-2.7-6.3-6.3c0-2.7,1.7-5.1,4.2-5.9V37.1c-2.5-0.8-4.2-3.2-4.2-5.9c0-1.1,0.2-1.9,0.6-2.7l-8.6-8.6L9.7,44
	C8.6,45.1,8,46.5,8,48c0,1.5,0.6,2.9,1.7,4L44,86.3l0,0c1.1,1.1,2.5,1.7,4,1.7c1.5,0,2.9-0.6,4-1.7L86.3,52c1.1-1.1,1.7-2.5,1.7-4
	C88,46.5,87.4,45.1,86.3,44z"/>
</svg>
