<?xml version="1.0" encoding="utf-8"?>
<!-- Generator: Adobe Illustrator 28.2.0, SVG Export Plug-In . SVG Version: 6.00 Build 0)  -->
<svg version="1.1" id="Layer_1" xmlns="http://www.w3.org/2000/svg" xmlns:xlink="http://www.w3.org/1999/xlink" x="0px" y="0px"
	 viewBox="0 0 98 96" style="enable-background:new 0 0 98 96;" xml:space="preserve">
<style type="text/css">
	.st0{fill-rule:evenodd;clip-rule:evenodd;fill:#FFFFFF;}
</style>
<path class="st0" d="M48.8,8.7c-22.1,0-40,18-40,40.3c0,17.8,11.5,32.9,27.4,38.3c2,0.4,2.7-0.9,2.7-1.9c0-0.9-0.1-4.1-0.1-7.5
	C27.7,80.2,25.4,73,25.4,73c-1.8-4.7-4.4-5.9-4.4-5.9c-3.6-2.5,0.3-2.5,0.3-2.5c4,0.3,6.2,4.1,6.2,4.1C31,75,36.7,73.2,39,72.2
	c0.3-2.6,1.4-4.4,2.5-5.4c-8.9-0.9-18.2-4.4-18.2-19.9c0-4.4,1.6-8,4.1-10.8c-0.4-1-1.8-5.1,0.4-10.7c0,0,3.4-1.1,11,4.1
	c3.3-0.9,6.6-1.3,10-1.3c3.4,0,6.8,0.5,10,1.3c7.6-5.2,11-4.1,11-4.1C72,30.9,70.7,35,70.3,36c2.6,2.8,4.1,6.4,4.1,10.8
	c0,15.5-9.3,18.9-18.3,19.9c1.5,1.3,2.7,3.7,2.7,7.5c0,5.4-0.1,9.7-0.1,11.1c0,1.1,0.7,2.3,2.7,1.9C77.3,81.9,88.8,66.8,88.8,49
	C88.9,26.7,70.9,8.7,48.8,8.7z"/>
</svg>
