<?xml version="1.0" encoding="utf-8"?>
<!-- Generator: Adobe Illustrator 28.2.0, SVG Export Plug-In . SVG Version: 6.00 Build 0)  -->
<svg version="1.1" id="Layer_1" xmlns="http://www.w3.org/2000/svg" xmlns:xlink="http://www.w3.org/1999/xlink" x="0px" y="0px"
	 viewBox="0 0 96 96" style="enable-background:new 0 0 96 96;" xml:space="preserve">
<style type="text/css">
	.st0{fill:#0AE448;}
</style>
<g>
	<path class="st0" d="M31.3,47C31.3,47,31.3,47,31.3,47l-1.1,4.6c-0.1,0.3-0.3,0.5-0.6,0.5h-1.3c-0.1,0-0.2,0.1-0.2,0.2
		c-1.2,4-2.8,6.8-4.9,8.4c-1.8,1.4-4,2.1-6.9,2.1c-2.6,0-4.4-0.9-5.9-2.6c-2-2.2-2.8-5.9-2.3-10.3c0.9-8.3,5.2-16.7,13.3-16.7
		c2.5,0,4.4,0.8,5.8,2.3c1.4,1.6,2.2,4.1,2.2,7.3c0,0.3-0.2,0.5-0.5,0.5h-6c-0.2,0-0.4-0.2-0.4-0.4c0-2.2-0.7-3.3-2-3.3
		c-2.3,0-3.7,3.2-4.4,4.9c-1,2.4-1.5,5.1-1.4,7.7c0,1.2,0.2,3,1.4,3.7c1,0.6,2.5,0.2,3.4-0.5c0.9-0.7,1.6-1.9,1.9-3
		c0-0.2,0-0.3,0-0.3c0-0.1-0.2-0.1-0.2-0.1h-1.5c-0.2,0-0.3-0.1-0.4-0.2c-0.1-0.1-0.1-0.2-0.1-0.4l1.1-4.6c0.1-0.2,0.3-0.4,0.5-0.4
		v0h10.1c0,0,0,0,0.1,0C31.1,46.5,31.3,46.8,31.3,47L31.3,47z"/>
	<path class="st0" d="M48.7,41.7c0,0.3-0.2,0.5-0.5,0.5h-5.5c-0.4,0-0.7-0.3-0.7-0.7c0-1.6-0.6-2.4-1.7-2.4c-1.1,0-1.9,0.7-1.9,1.9
		c0,1.4,0.7,2.6,2.9,4.8c2.9,2.7,4.1,5.2,4,8.4c-0.1,5.2-3.6,8.6-8.9,8.6c-2.7,0-4.8-0.7-6.2-2.2c-1.4-1.5-2-3.6-1.9-6.4
		c0-0.3,0.2-0.5,0.5-0.5h5.7c0.2,0,0.3,0.1,0.4,0.2c0.1,0.1,0.1,0.2,0.1,0.4c-0.1,1,0.1,1.8,0.5,2.2c0.3,0.3,0.6,0.4,1,0.4
		c1.1,0,1.7-0.8,1.7-2.1c0-1.1-0.3-2.1-2.3-4.1c-2.5-2.5-4.7-5-4.7-9c0-2.3,1-4.5,2.6-6c1.7-1.6,4.1-2.5,6.8-2.5
		c2.7,0,4.8,0.8,6.1,2.3C48.2,36.9,48.8,39,48.7,41.7L48.7,41.7z"/>
	<path class="st0" d="M65.9,61.9l0-27.6c0-0.3-0.2-0.5-0.5-0.5h-8.6c-0.3,0-0.4,0.2-0.5,0.4L43.9,61.7v0c0,0,0,0,0,0
		c-0.1,0.3,0.1,0.7,0.5,0.7h6c0.3,0,0.5-0.1,0.6-0.3l1.2-2.9c0.1-0.4,0.2-0.4,0.6-0.4h5.7c0.4,0,0.4,0,0.4,0.4l-0.1,2.7
		c0,0.3,0.2,0.5,0.5,0.5h6c0.2,0,0.3-0.1,0.4-0.2C65.8,62.1,65.9,62,65.9,61.9z M55.3,52.6c-0.1,0-0.1,0-0.1,0
		c-0.1,0-0.1-0.1-0.1-0.2c0,0,0-0.1,0.1-0.2l4.3-10.7c0-0.1,0.1-0.2,0.1-0.3c0.1-0.1,0.2-0.2,0.2,0c0,0.1-0.5,11-0.5,11
		c0,0.4-0.1,0.4-0.5,0.5L55.3,52.6L55.3,52.6L55.3,52.6z"/>
	<path class="st0" d="M78.1,33.7h-4.5c-0.2,0-0.5,0.1-0.6,0.4c0,0-6.3,27.7-6.3,27.7c0,0.1,0,0.3,0.1,0.4c0.1,0.1,0.3,0.2,0.4,0.2
		h5.7c0.3,0,0.5-0.2,0.6-0.4c0,0,0.7-3.1,0.7-3.1c0-0.2,0-0.4-0.3-0.6c-0.1-0.1-0.2-0.1-0.3-0.2l-1-0.5l-1-0.5
		c-0.1-0.1-0.3-0.1-0.4-0.2c-0.1,0-0.1-0.1-0.1-0.2c0-0.1,0.1-0.2,0.2-0.2l3.1,0c0.9,0,1.9-0.1,2.8-0.2c6.4-1.2,10.7-6.4,10.8-13.5
		C88.1,36.8,84.8,33.7,78.1,33.7L78.1,33.7z M76.5,50.2h-0.1c-0.3,0-0.3,0-0.3,0c0,0,1.8-8,1.8-8c0-0.2,0-0.4-0.1-0.4
		c-0.2-0.1-2.8-1.5-2.8-1.5c-0.1,0-0.1-0.1-0.1-0.2c0-0.1,0.1-0.2,0.2-0.2h4.2c1.3,0,2,1.2,2,3.2C81.1,46.5,79.5,50.1,76.5,50.2z"/>
</g>
</svg>
