<?xml version="1.0" encoding="utf-8"?>
<!-- Generator: Adobe Illustrator 28.2.0, SVG Export Plug-In . SVG Version: 6.00 Build 0)  -->
<svg version="1.1" id="Layer_1" xmlns="http://www.w3.org/2000/svg" xmlns:xlink="http://www.w3.org/1999/xlink" x="0px" y="0px"
	 viewBox="0 0 96 96" style="enable-background:new 0 0 96 96;" xml:space="preserve">
<style type="text/css">
	.st0{fill:#E65100;}
	.st1{fill:#FF6D00;}
	.st2{fill:#FFFFFF;}
	.st3{fill:#EEEEEE;}
</style>
<g>
	<path class="st0" d="M83.8,8H12.2l6.3,71.6L48,88l29.5-8.4L83.8,8L83.8,8z"/>
	<path class="st1" d="M48,14.3v67.2l23.6-6.7l5.3-60.4H48z"/>
	<path class="st2" d="M48,50.1v-8.4h18.1l-1.5,24.2L48,71.4v-8.8l8.6-2.9l0.6-9.5C57.3,50.1,48,50.1,48,50.1z M66.7,33.3l0.6-8.4H48
		v8.4H66.7z"/>
	<path class="st3" d="M48,62.5v8.8l-16.6-5.5l-0.8-11.6h8.4l0.4,5.3L48,62.5z M37.7,33.3H48v-8.4H28.8l1.5,25.3H48v-8.4h-9.7
		L37.7,33.3z"/>
</g>
</svg>
