<?xml version="1.0" encoding="utf-8"?>
<!-- Generator: Adobe Illustrator 28.2.0, SVG Export Plug-In . SVG Version: 6.00 Build 0)  -->
<svg version="1.1" id="Illustrator_64" xmlns="http://www.w3.org/2000/svg" xmlns:xlink="http://www.w3.org/1999/xlink" x="0px"
	 y="0px" viewBox="0 0 96 96" style="enable-background:new 0 0 96 96;" xml:space="preserve">
<style type="text/css">
	.st0{fill:#330000;}
	.st1{fill:#FF9A00;}
</style>
<g>
	<path id="Path_99510" class="st0" d="M22.3,9.3H74c7.7,0,14,6.2,14,13.9c0,0.1,0,0.1,0,0.2v49.3c0,7.8-6.4,14.1-14.2,14.1l0,0H22.3
		C14.4,86.8,8,80.5,8,72.6l0,0V23.4C7.9,15.6,14.2,9.3,21.9,9.2C22,9.2,22.1,9.2,22.3,9.3z"/>
	<path id="Path_99512" class="st1" d="M64.5,34.7c-1.1,0-2.2-0.5-3-1.2c-0.7-0.8-1.1-1.9-1-3c0-1.1,0.5-2.2,1.2-3
		c1.6-1.7,4.3-1.7,6,0l0,0c0.8,0.8,1.2,1.9,1,3c0.1,1.1-0.3,2.3-1.2,3C66.7,34.2,65.6,34.7,64.5,34.7z M61,63.4V37.9
		c0-0.3,0.2-0.5,0.5-0.5H68c0.3,0,0.5,0.2,0.5,0.5v25.7c0,0.3-0.2,0.5-0.5,0.5h-6.5C61,64.2,61,63.9,61,63.4z"/>
	<path id="Path_99511" class="st1" d="M46.7,55.7H34.2l-2.5,7.7c0,0.2-0.2,0.5-0.7,0.5h-6c-0.3,0-0.5-0.2-0.5-0.5l10.7-31
		c0.2-0.2,0.2-0.5,0.2-1c0.2-0.7,0.3-1.5,0.2-2.2l0.2-0.2h8.5c0.2,0,0.5,0,0.5,0.2L57,63.4c0,0.2,0,0.5-0.2,0.5h-7
		c-0.3,0-0.5-0.2-0.5-0.5L46.7,55.7z M36.2,48.9h8.5c-0.2-0.7-0.5-1.5-0.7-2.5c-0.2-1-0.6-1.9-1-2.7c-0.2-1-0.7-2-1-3
		c-0.2-1-0.6-2-1-3c-0.3-0.8-0.6-1.6-0.7-2.5l0,0C40,36.6,39.6,38,39,39.4c-0.5,1.5-1,3.2-1.5,5C37.2,45.9,36.8,47.4,36.2,48.9z"/>
</g>
</svg>
