<?xml version="1.0" encoding="utf-8"?>
<!-- Generator: Adobe Illustrator 28.2.0, SVG Export Plug-In . SVG Version: 6.00 Build 0)  -->
<svg version="1.1" id="Layer_1" xmlns="http://www.w3.org/2000/svg" xmlns:xlink="http://www.w3.org/1999/xlink" x="0px" y="0px"
	 viewBox="0 0 96 96" style="enable-background:new 0 0 96 96;" xml:space="preserve">
<style type="text/css">
	.st0{fill:#F7DF1E;}
	.st1{fill:#000001;}
</style>
<g>
	<path class="st0" d="M8,88V8h80v80H8z"/>
	<path class="st1" d="M60.3,67.9c1.5,2.5,3.2,4.9,6.7,4.9c3,0,4.5-1.5,4.5-3.5c0-2.4-1.6-3.3-4.9-4.7l-1.8-0.8
		c-5.2-2.2-8.6-4.9-8.6-10.8c0-5.4,4.1-9.4,10.5-9.4c4.6,0,7.8,1.6,10.2,5.7l-5.6,3.6c-1.2-2.2-2.6-3.1-4.6-3.1
		c-2.1,0-3.4,1.3-3.4,3.1c0,2.1,1.3,3,4.4,4.3l1.8,0.8c6.1,2.6,9.5,5.3,9.5,11.2c0,6.4-5.1,9.9-11.9,9.9c-6.7,0-10.4-3.3-12.6-7.5
		L60.3,67.9z M34.6,68.1c1.1,2,2.8,3.6,5.3,3.6c2.4,0,3.7-0.9,3.7-4.5V43.6H51v24.7c0,7.5-4.3,10.9-10.7,10.9
		c-5.7,0-9.9-3.9-11.5-7.5L34.6,68.1z"/>
</g>
</svg>
