<?xml version="1.0" encoding="utf-8"?>
<!-- Generator: Adobe Illustrator 28.2.0, SVG Export Plug-In . SVG Version: 6.00 Build 0)  -->
<svg version="1.1" id="Layer_1" xmlns="http://www.w3.org/2000/svg" xmlns:xlink="http://www.w3.org/1999/xlink" x="0px" y="0px"
	 viewBox="0 0 96 96" style="enable-background:new 0 0 96 96;" xml:space="preserve">
<style type="text/css">
	.st0{fill:#64BD57;}
</style>
<path class="st0" d="M55,16.9c-3.4-4-6.3-8-6.9-8.9C48,8,47.9,8,47.9,8c-0.6,0.8-3.5,4.9-6.9,8.9c-28.9,36.8,4.6,61.6,4.6,61.6
	l0.3,0.2c0.2,3.8,0.9,9.3,0.9,9.3h2.5c0,0,0.6-5.5,0.9-9.3l0.3-0.2C50.4,78.4,83.9,53.7,55,16.9L55,16.9z M48,77.9
	c0,0-1.5-1.3-1.9-1.9v-0.1l1.8-40c0-0.1,0.2-0.1,0.2,0l1.8,40V76C49.4,76.7,47.9,77.9,48,77.9L48,77.9z"/>
</svg>
