<?xml version="1.0" encoding="utf-8"?>
<!-- Generator: Adobe Illustrator 28.2.0, SVG Export Plug-In . SVG Version: 6.00 Build 0)  -->
<svg version="1.1" id="Layer_1" xmlns="http://www.w3.org/2000/svg" xmlns:xlink="http://www.w3.org/1999/xlink" x="0px" y="0px"
	 viewBox="0 0 96 96" style="enable-background:new 0 0 96 96;" xml:space="preserve">
<style type="text/css">
	.st0{fill:#FFF312;}
	.st1{fill:#0A0A0A;}
</style>
<g id="motion">
	<path class="st0" d="M26.3,8h43.5C79.8,8,88,16.2,88,26.3v43.5C88,79.8,79.8,88,69.7,88H26.3C16.2,88,8,79.8,8,69.7V26.3
		C8,16.2,16.2,8,26.3,8z"/>
	<path class="st1" d="M41.3,37.7L30.4,58.3h-9.9L29,42.2c1.3-2.5,4.6-4.5,7.3-4.5C36.4,37.7,41.3,37.7,41.3,37.7z M65.6,42.9
		c0-2.8,2.2-5.1,4.9-5.1s5,2.3,5,5.1c0,2.8-2.2,5.1-5,5.1S65.6,45.8,65.6,42.9z M43.1,37.7H53L42.1,58.3h-9.9L43.1,37.7z M54.9,37.7
		h9.9l-8.5,16.1c-1.3,2.5-4.6,4.5-7.3,4.5h-5L54.9,37.7z"/>
</g>
</svg>
