<?xml version="1.0" encoding="utf-8"?>
<!-- Generator: Adobe Illustrator 28.2.0, SVG Export Plug-In . SVG Version: 6.00 Build 0)  -->
<svg version="1.1" id="Layer_1" xmlns="http://www.w3.org/2000/svg" xmlns:xlink="http://www.w3.org/1999/xlink" x="0px" y="0px"
	 viewBox="0 0 96 96" style="enable-background:new 0 0 96 96;" xml:space="preserve">
<style type="text/css">
	.st0{fill:#539E43;}
</style>
<g id="_x32_33-node-js">
	<g>
		<path class="st0" d="M48,88c-1.1,0-2.1-0.3-3.1-0.8l-9.8-5.8c-1.5-0.8-0.7-1.1-0.3-1.3c2-0.7,2.3-0.8,4.4-2
			c0.2-0.1,0.5-0.1,0.7,0.1l7.5,4.5c0.3,0.2,0.7,0.2,0.9,0l29.3-16.9c0.3-0.2,0.4-0.5,0.4-0.8V31.1c0-0.3-0.2-0.6-0.5-0.8L48.4,13.3
			c-0.3-0.2-0.6-0.2-0.9,0L18.2,30.3c-0.3,0.2-0.5,0.5-0.5,0.8v33.8c0,0.3,0.2,0.6,0.5,0.8l8,4.6c4.4,2.2,7-0.4,7-3V33.9
			c0-0.5,0.4-0.8,0.9-0.8h3.7c0.5,0,0.9,0.4,0.9,0.8v33.4c0,5.8-3.2,9.1-8.7,9.1c-1.7,0-3,0-6.7-1.8l-7.7-4.4
			c-1.9-1.1-3.1-3.1-3.1-5.3V31.1c0-2.2,1.2-4.3,3.1-5.3L44.9,8.8c1.9-1,4.3-1,6.2,0l29.3,16.9c1.9,1.1,3.1,3.1,3.1,5.3v33.8
			c0,2.2-1.2,4.2-3.1,5.3L51.1,87.2C50.1,87.7,49.1,88,48,88z M71.7,54.6c0-6.3-4.3-8-13.3-9.2c-9.1-1.2-10-1.8-10-4
			c0-1.8,0.8-4.1,7.5-4.1c6,0,8.2,1.3,9.2,5.4c0.1,0.4,0.4,0.7,0.8,0.7h3.8c0.2,0,0.5-0.1,0.6-0.3c0.2-0.2,0.2-0.4,0.2-0.7
			c-0.6-7-5.2-10.3-14.6-10.3c-8.4,0-13.4,3.5-13.4,9.4c0,6.4,5,8.2,13,9c9.6,0.9,10.4,2.3,10.4,4.2c0,3.3-2.6,4.7-8.8,4.7
			c-7.8,0-9.5-2-10-5.8c-0.1-0.4-0.4-0.7-0.8-0.7h-3.8c-0.5,0-0.8,0.4-0.8,0.8c0,4.9,2.7,10.8,15.5,10.8
			C66.3,64.7,71.7,61,71.7,54.6L71.7,54.6z"/>
	</g>
</g>
</svg>
