<?xml version="1.0" encoding="utf-8"?>
<!-- Generator: Adobe Illustrator 28.2.0, SVG Export Plug-In . SVG Version: 6.00 Build 0)  -->
<svg version="1.1" id="Photoshop_64" xmlns="http://www.w3.org/2000/svg" xmlns:xlink="http://www.w3.org/1999/xlink" x="0px"
	 y="0px" viewBox="0 0 96 96" style="enable-background:new 0 0 96 96;" xml:space="preserve">
<style type="text/css">
	.st0{fill:#001E36;}
	.st1{fill:#31A8FF;}
</style>
<g>
	<path id="Path_99550" class="st0" d="M22.3,9.3H74c7.7,0,14,6.2,14,13.9c0,0.1,0,0.1,0,0.2v49.3c0,7.8-6.4,14.1-14.2,14.1l0,0H22.3
		C14.4,86.8,8,80.5,8,72.6l0,0V23.4C7.9,15.6,14.2,9.3,21.9,9.2C22,9.2,22.1,9.2,22.3,9.3z"/>
	<path id="Path_99551" class="st1" d="M26,63.7V29.4c0-0.2,0-0.5,0.2-0.5h10.5c2.3-0.1,4.6,0.2,6.7,1c1.7,0.5,3.2,1.4,4.5,2.5
		c1.1,1,2,2.3,2.5,3.7c0.5,1.4,0.7,2.8,0.7,4.2c0.1,2.5-0.6,4.9-2,7c-1.3,1.8-3.2,3.2-5.2,4c-2.4,0.8-4.9,1.2-7.5,1.2h-3.2v10.7
		c0,0.2-0.1,0.4-0.2,0.5h-6.5C26.3,64.2,26,63.9,26,63.7z M33.2,35.4v11.2h3c1.3,0,2.5-0.2,3.7-0.5c1.1-0.3,2-0.9,2.7-1.7
		c0.8-1,1.1-2.2,1-3.5c0-1-0.3-2.1-0.7-3c-0.6-0.8-1.4-1.5-2.2-2c-1.3-0.5-2.6-0.8-4-0.7h-2.2C34.1,35.2,33.7,35.3,33.2,35.4z"/>
	<path id="Path_99552" class="st1" d="M72,44.3c-1-0.6-2.1-1-3.2-1.2c-1.2-0.3-2.5-0.5-3.7-0.5c-0.7,0-1.4,0-2,0.2
		c-0.5,0-0.7,0.2-1,0.7c-0.2,0.2-0.2,0.5-0.2,1c0,0.3,0.1,0.6,0.2,0.7c0.4,0.4,0.8,0.7,1.2,1c0.7,0.4,1.5,0.8,2.2,1
		c1.8,0.6,3.5,1.4,5,2.5c1,0.8,2,1.7,2.7,2.7c0.5,1.1,0.8,2.3,0.7,3.5c-0.1,1.6-0.5,3.1-1.2,4.5c-1,1.3-2.3,2.3-3.7,3
		c-1.9,0.7-4,1.1-6,1c-1.5,0-3-0.2-4.5-0.5c-1.2-0.2-2.4-0.6-3.5-1c-0.2,0-0.5-0.5-0.5-0.7v-5.7l0.2-0.2H55c1.4,0.7,2.8,1.3,4.2,1.7
		c1.3,0.3,2.7,0.5,4,0.5c0.9,0,1.9-0.1,2.7-0.5c0.6-0.3,1-0.8,1-1.5c0-0.5-0.3-1-0.7-1.2c-1-0.7-2.1-1.2-3.2-1.5
		c-1.7-0.6-3.3-1.4-4.7-2.5c-1-0.7-1.9-1.7-2.5-2.7c-0.5-1.1-0.8-2.3-0.7-3.5c0-1.4,0.5-2.8,1.2-4c0.8-1.4,2-2.4,3.5-3
		c1.9-0.9,3.9-1.3,6-1.2c1.4,0,2.8,0,4.2,0.2c1,0.1,2,0.4,3,0.7l0.2,0.2v6L73,44.3H72z"/>
</g>
</svg>
