<?xml version="1.0" encoding="utf-8"?>
<!-- Generator: Adobe Illustrator 28.2.0, SVG Export Plug-In . SVG Version: 6.00 Build 0)  -->
<svg version="1.1" id="Layer_1" xmlns="http://www.w3.org/2000/svg" xmlns:xlink="http://www.w3.org/1999/xlink" x="0px" y="0px"
	 viewBox="0 0 96 96" style="enable-background:new 0 0 96 96;" xml:space="preserve">
<style type="text/css">
	.st0{fill:#336791;}
	.st1{fill:#FFFFFF;}
</style>
<g>
	<path d="M86.6,55.9c-0.3-0.8-1.5-3.4-5.9-2.5c-1.8,0.4-3.1,0.5-4,0.5c3.6-6.1,6.5-13,8.2-19.5c1.5-5.8,2.6-13.6-0.4-17.5
		C80,11.2,73.4,8.1,65.5,8c-4.2-0.1-7.9,0.8-9.9,1.4c-1.8-0.3-3.7-0.5-5.8-0.5c-3.8-0.1-7.2,0.8-10,2.5c-1.6-0.5-4.1-1.3-7.1-1.8
		c-6.9-1.1-12.5-0.3-16.6,2.6c-5,3.5-7.3,9.6-6.8,18.1c0.1,2.7,1.6,10.9,4,18.7c1.4,4.5,2.8,8.2,4.3,11c2.1,4,4.4,6.4,7,7.3
		c1.4,0.5,4,0.8,6.8-1.5c1,1.2,2.6,2,4.1,2.4c3.4,0.9,6.7,0.6,9.4-0.6c0,0.5,0,1,0,1.4c0,0.7,0,1.3,0.1,1.9c0.2,4.1,0.4,7.2,1.3,9.4
		c0,0.1,0.1,0.3,0.2,0.5c0.4,1.3,1.1,3.3,2.8,5c1.2,1.1,3.1,2.2,6,2.2c0.8,0,1.8-0.1,2.8-0.3c3-0.6,6.4-1.6,8.8-5.1
		c2.3-3.3,3.4-8.3,3.6-16.1c0-0.2,0.1-0.4,0.1-0.6c0-0.1,0-0.3,0-0.4h0.5h0.1c3,0.1,6.8-0.5,9-1.6C82.2,63.1,88,60,86.6,55.9z"/>
	<path class="st0" d="M81.4,56.7c-9,1.9-9.7-1.2-9.7-1.2C81.3,41.4,85.3,23.4,81.8,19c-9.4-12-25.6-6.3-25.9-6.2h-0.1
		c-1.8-0.4-3.8-0.6-6-0.6c-4.1-0.1-7.2,1.1-9.5,2.9c0,0-29-11.9-27.6,15c0.3,5.7,8.2,43.4,17.7,32c3.5-4.2,6.8-7.7,6.8-7.7
		c1.7,1.1,3.6,1.7,5.7,1.5l0.2-0.1c-0.1,0.5,0,1,0.1,1.6c-2.4,2.7-1.7,3.2-6.6,4.2c-4.9,1-2,2.8-0.1,3.3c2.3,0.6,7.6,1.4,11.2-3.6
		l-0.1,0.6c1,0.8,1.6,5,1.5,8.8c-0.1,3.8-0.2,6.4,0.6,8.5c0.8,2,1.5,6.7,7.9,5.3c5.4-1.1,8.1-4.1,8.5-9.1c0.3-3.5,0.9-3,0.9-6.2
		l0.5-1.5c0.6-4.8,0.1-6.3,3.4-5.6l0.8,0.1c2.4,0.1,5.6-0.4,7.5-1.3C83,59,85.4,55.9,81.4,56.7L81.4,56.7z"/>
	<path class="st1" d="M84.4,56.5c-0.3-1-1.5-1.4-3.3-1c-5.5,1.1-7.4,0.3-8.1-0.1c4.3-6.5,7.8-14.3,9.6-21.6c0.9-3.5,2.7-12.1,0-15.6
		c-4.1-5.2-10-8-17.3-8.1c-5-0.1-9.2,1.2-10,1.6c-1.7-0.4-3.6-0.7-5.6-0.7c-3.7-0.1-7,0.8-9.6,2.7c-2.7-1-15.1-5.2-22.8,0.2
		c-4.3,3-6.3,8.5-5.9,16.2c0.1,2.6,1.6,10.5,3.9,18.1c3.1,10,6.4,15.7,9.9,16.9c0.4,0.1,0.9,0.2,1.4,0.2c1.3,0,2.8-0.6,4.5-2.5
		c2.7-3.3,5.2-6,6.2-7c1.4,0.7,2.9,1.1,4.4,1.2v0.1c-0.3,0.4-0.6,0.7-0.8,1c-1.1,1.4-1.3,1.6-4.7,2.4c-1,0.2-3.6,0.7-3.6,2.6
		c0,2,3.1,2.8,3.4,2.9c1.2,0.3,2.4,0.5,3.6,0.5c2.8,0,5.2-0.9,7.1-2.7c-0.1,7.1,0.2,14.1,1.1,16.2c0.7,1.7,2.4,6,7.8,6
		c0.8,0,1.7-0.1,2.6-0.3c5.6-1.2,8.1-3.7,9-9.2c0.5-2.9,1.4-9.9,1.8-13.7c0.9,0.3,2,0.4,3.2,0.4c2.5,0,5.4-0.5,7.2-1.4
		C81.4,60.8,85.1,58.5,84.4,56.5z M65.6,12.4c6.5,0.1,11.6,2.6,15.2,7.2c2.8,3.6-0.3,19.7-9.2,33.7c-0.1-0.1-0.2-0.2-0.3-0.3
		l-0.1-0.1c2.3-3.8,1.8-7.5,1.4-10.9c-0.2-1.4-0.3-2.7-0.3-3.9c0-1.3,0.2-2.4,0.4-3.4c0.2-1.3,0.4-2.7,0.4-4.3c0-0.2,0.1-0.4,0-0.6
		c-0.1-1.5-1.9-6.1-5.5-10.3c-2-2.3-4.8-4.8-8.7-6.5C60.8,12.6,63.1,12.3,65.6,12.4z M70.6,42.2c0.3,2.8,0.7,5.7-0.7,8.5
		c-0.2-0.4-0.4-0.8-0.6-1.2c-0.2-0.4-0.5-1.1-1-1.9c-1.9-3.5-6.5-11.7-4.2-15c1.2-1.7,4.2-1.8,6.9-1.5c0,1.1-0.2,2.1-0.3,3.2
		c-0.2,1.1-0.4,2.3-0.4,3.7C70.2,39.4,70.4,40.8,70.6,42.2z M29.4,61.3c-1.8,2.2-3,1.7-3.4,1.6c-2.7-0.9-5.7-6.5-8.4-15.4
		c-2.3-7.7-3.7-15.4-3.8-17.6c-0.3-6.9,1.3-11.6,4.9-14.2c5.9-4.2,15.6-1.7,19.5-0.4c-0.1,0.1-0.1,0.1-0.2,0.2
		C31.6,22,31.8,33,31.8,33.7c0,0.3,0,0.6,0.1,1.1c0.1,1.9,0.3,5.3-0.2,9.2c-0.5,3.6,0.6,7.2,3.1,9.8c0.3,0.3,0.5,0.5,0.8,0.7
		C34.3,55.7,31.9,58.2,29.4,61.3z M36.2,52.2c-2-2.1-2.9-4.9-2.5-7.9c0.6-4.1,0.4-7.7,0.2-9.7c0-0.3,0-0.5,0-0.7
		c0.9-0.8,5.3-3.1,8.3-2.4c1.4,0.3,2.3,1.3,2.6,2.9c1.8,8.5,0.2,12.1-1,15c-0.3,0.6-0.5,1.1-0.7,1.7L43,51.5
		c-0.4,1.1-0.8,2.2-1.1,3.2C39.8,54.7,37.8,53.8,36.2,52.2z M46.5,60.5c-2.9,4-7,3.9-10,3.2c-0.6-0.2-1.2-0.4-1.5-0.6
		c0.3-0.1,0.8-0.3,1.6-0.5c4.1-0.8,4.7-1.4,6-3.2c0.3-0.4,0.7-0.8,1.2-1.4l0,0c0.7-0.8,1.1-0.7,1.7-0.4c0.5,0.2,1,0.8,1.2,1.5
		C46.8,59.4,46.9,60,46.5,60.5z M67,60.5c-0.2,2.1-1.4,12-2,15.5c-0.8,4.6-2.5,6.3-7.3,7.4c-5,1.1-6.7-1.5-7.9-4.4
		c-0.7-1.9-1.1-10.3-0.9-19.6c0-0.1,0-0.2,0-0.4s-0.1-0.4-0.1-0.7c-0.4-1.4-1.3-2.5-2.5-3C45.9,55.1,45,54.8,44,55
		c0.2-0.9,0.6-1.9,1-2.9l0.2-0.4c0.2-0.5,0.4-1,0.7-1.6c1.3-3,3.2-7.1,1.2-16.3c-0.8-3.5-3.3-5.2-7.1-4.8c-2.3,0.2-4.4,1.2-5.4,1.7
		c-0.2,0.1-0.4,0.2-0.6,0.3c0.3-3.5,1.4-10,5.5-14.2c2.6-2.6,6-3.9,10.2-3.8c8.2,0.1,13.5,4.4,16.5,7.9c2.6,3,4,6.1,4.5,7.8
		c-4.2-0.4-7,0.4-8.5,2.5c-3.1,4.5,1.7,13.2,4,17.4c0.4,0.8,0.8,1.4,0.9,1.7c0.8,1.8,1.7,3.1,2.5,4c0.2,0.3,0.4,0.5,0.6,0.8
		C69,55.5,66.8,56.3,67,60.5z M78.4,59.8c-1.3,0.6-3.5,1.1-5.5,1.1c-2.3,0.1-3.4-0.3-3.7-0.5c-0.1-2.6,0.8-2.9,1.9-3.2
		c0.2,0,0.3-0.1,0.5-0.1c0.1,0.1,0.2,0.2,0.3,0.2c1.8,1.2,5.1,1.3,9.7,0.4c0,0,0,0,0.1,0C81,58.3,79.9,59.1,78.4,59.8z"/>
	<path class="st1" d="M43.2,34.9c0.3-0.2,0.7-0.6,0.7-0.9c0-0.2,0-0.6-0.6-0.9c-0.3-0.2-0.8-0.3-1.3-0.4c-0.8-0.1-1.6,0-1.9,0.3
		c-0.2,0.2-0.3,0.3-0.3,0.5c0,0.3,0.2,0.7,0.3,0.9c0.4,0.5,1,0.9,1.6,1c0.1,0,0.2,0,0.3,0C42.3,35.3,42.8,35.2,43.2,34.9z"/>
	<path class="st1" d="M66.9,32.1c-0.9,0.1-1.8,0.6-1.8,1.1c0.1,0.4,0.8,1.2,1.8,1.2c0.1,0,0.2,0,0.2,0c0.6-0.1,1.1-0.5,1.3-0.7
		c0.3-0.3,0.5-0.7,0.5-0.9c0,0,0,0,0-0.1C68.8,32.1,67.9,32,66.9,32.1z"/>
</g>
</svg>
