<?xml version="1.0" encoding="utf-8"?>
<!-- Generator: Adobe Illustrator 28.2.0, SVG Export Plug-In . SVG Version: 6.00 Build 0)  -->
<svg version="1.1" id="Layer_1" xmlns="http://www.w3.org/2000/svg" xmlns:xlink="http://www.w3.org/1999/xlink" x="0px" y="0px"
	 viewBox="0 0 96 96" style="enable-background:new 0 0 96 96;" xml:space="preserve">
<style type="text/css">
	.st0{fill:#0277BD;}
	.st1{fill:#FFC107;}
</style>
<g>
	<path class="st0" d="M48.6,8c-3.3,0-5.5,0.3-8.3,0.8c-8.1,1.4-9.6,4.4-9.6,9.8v8.3h18.9v4.2H30h-9.2c-5.5,0-10.4,2.6-11.9,8.9
		c-1.7,7.2-1.8,11.7,0,19.2c1.4,5.6,4.4,9.8,10,9.8h7.6V58.3c0-6.2,5.7-12.4,12.1-12.4h15.2c5.3,0,10.5-3.9,10.5-9.2V18.6
		c0-5.1-3.7-9-8.9-9.8C55.7,8.8,51.8,8,48.6,8z M38.1,16.4c1.7,0,3.2,1.4,3.2,3.2c0,1.8-1.4,3.2-3.2,3.2c-1.8,0-3.2-1.4-3.2-3.2
		C34.9,17.9,36.3,16.4,38.1,16.4z"/>
	<path class="st1" d="M46.5,88c3.3,0,5.5-0.3,8.3-0.8c8.1-1.4,9.6-4.4,9.6-9.8v-8.3H45.5v-4.2h19.7h9.2c5.5,0,10.4-2.6,11.9-8.9
		c1.7-7.2,1.8-11.7,0-19.2c-1.4-5.6-4.4-9.8-10-9.8h-7.6v10.7c0,6.2-5.7,12.4-12.1,12.4H41.2c-5.3,0-10.5,3.9-10.5,9.2v18.1
		c0,5.1,3.7,9,8.9,9.8C39.5,87.2,43.3,88,46.5,88z M57,79.6c-1.7,0-3.2-1.4-3.2-3.2c0-1.8,1.4-3.2,3.2-3.2c1.8,0,3.2,1.4,3.2,3.2
		C60.2,78.1,58.8,79.6,57,79.6z"/>
</g>
</svg>
