<?xml version="1.0" encoding="utf-8"?>
<!-- Generator: Adobe Illustrator 28.2.0, SVG Export Plug-In . SVG Version: 6.00 Build 0)  -->
<svg version="1.1" id="Layer_2_00000121995664846543442440000013526211581683604632_"
	 xmlns="http://www.w3.org/2000/svg" xmlns:xlink="http://www.w3.org/1999/xlink" x="0px" y="0px" viewBox="0 0 96 96"
	 style="enable-background:new 0 0 96 96;" xml:space="preserve">
<style type="text/css">
	.st0{fill:#00D8FF;}
</style>
<g>
	<circle class="st0" cx="48" cy="47.9" r="7.1"/>
	<g>
		<path class="st0" d="M48,64.3c-10,0-18.8-1.2-25.4-3.4c-4.3-1.5-7.9-3.4-10.5-5.6C9.5,52.9,8,50.4,8,47.9c0-4.7,5.2-9.4,13.9-12.4
			c7.1-2.5,16.4-3.9,26.1-3.9c9.5,0,18.7,1.3,25.8,3.8c4.1,1.4,7.6,3.3,10.1,5.3c2.7,2.2,4.1,4.7,4.1,7.1c0,4.9-5.8,9.9-15.1,13
			C66.3,63.1,57.4,64.3,48,64.3z M48,35.1c-9.2,0-18.3,1.3-25,3.7c-8,2.8-11.6,6.6-11.6,9.2c0,2.6,3.9,6.8,12.3,9.7
			c6.2,2.1,14.6,3.2,24.3,3.2c9.1,0,17.5-1.1,23.8-3.2c8.8-2.9,12.8-7.1,12.8-9.7c0-1.4-1-2.9-2.9-4.5c-2.2-1.8-5.3-3.4-9-4.7
			C65.9,36.4,57.2,35.1,48,35.1z"/>
	</g>
	<g>
		<path class="st0" d="M31.8,83.5c-1.5,0-2.7-0.3-3.8-0.9c-4.1-2.4-5.5-9.2-3.8-18.2c1.4-7.4,4.9-16.1,9.7-24.5
			c4.8-8.3,10.5-15.5,16.1-20.4c3.3-2.9,6.7-5,9.7-6.1c3.3-1.2,6.1-1.2,8.2,0c4.3,2.4,5.7,10,3.7,19.6c-1.4,6.8-4.8,15.1-9.5,23.2
			c-5,8.7-10.4,15.7-15.6,20.3c-3.4,3-6.9,5.1-10.1,6.3C34.8,83.3,33.2,83.5,31.8,83.5z M35.4,40.7l1.5,0.9c-4.6,8-8,16.5-9.3,23.5
			c-1.6,8.3-0.1,13.3,2.1,14.6c0.5,0.3,1.3,0.5,2.1,0.5c2.8,0,7.3-1.8,12.4-6.3c4.9-4.3,10.1-11,14.9-19.4
			c4.5-7.8,7.7-15.7,9.1-22.2c1.9-9.1,0.3-14.6-2-15.9c-1.2-0.7-3.1-0.6-5.3,0.3c-2.6,1-5.6,2.9-8.6,5.5
			c-5.4,4.7-10.9,11.6-15.4,19.6L35.4,40.7z"/>
	</g>
	<g>
		<path class="st0" d="M64.2,83.6c-3.9,0-8.8-2.3-13.9-6.7c-5.7-4.9-11.5-12.3-16.4-20.7l0,0c-4.8-8.3-8.2-16.8-9.6-24.2
			c-0.8-4.3-1-8.2-0.5-11.4c0.6-3.5,2-5.9,4.1-7.1c4.2-2.5,11.5,0.1,18.8,6.6c5.2,4.6,10.7,11.7,15.4,19.8c5,8.7,8.4,16.9,9.7,23.7
			c0.9,4.4,1,8.5,0.4,11.8c-0.7,3.5-2.1,6.1-4.3,7.3C66.9,83.3,65.6,83.6,64.2,83.6z M36.9,54.5c4.6,8,10.3,15.2,15.7,19.8
			c6.4,5.5,11.5,6.7,13.7,5.4c2.3-1.3,4-6.7,2.2-15.5c-1.3-6.4-4.5-14.3-9.4-22.6c-4.5-7.8-9.8-14.6-14.7-19
			c-6.9-6.2-12.5-7.5-14.8-6.2c-1.2,0.7-2,2.4-2.4,4.8c-0.5,2.8-0.3,6.3,0.4,10.2C29,38.3,32.3,46.5,36.9,54.5L36.9,54.5z"/>
	</g>
</g>
</svg>
