<?xml version="1.0" encoding="utf-8"?>
<!-- Generator: Adobe Illustrator 28.2.0, SVG Export Plug-In . SVG Version: 6.00 Build 0)  -->
<svg version="1.1" id="Layer_1" xmlns="http://www.w3.org/2000/svg" xmlns:xlink="http://www.w3.org/1999/xlink" x="0px" y="0px"
	 viewBox="0 0 96 96" style="enable-background:new 0 0 96 96;" xml:space="preserve">
<style type="text/css">
	.st0{clip-path:url(#SVGID_00000039849272141312770340000014968808958389338499_);}
	.st1{fill-rule:evenodd;clip-rule:evenodd;fill:#38BDF8;}
</style>
<g>
	<defs>
		<rect id="SVGID_1_" x="8" y="23.7" width="80" height="48"/>
	</defs>
	<clipPath id="SVGID_00000134962344369567049520000017543468134461442194_">
		<use xlink:href="#SVGID_1_"  style="overflow:visible;"/>
	</clipPath>
	<g style="clip-path:url(#SVGID_00000134962344369567049520000017543468134461442194_);">
		<path class="st1" d="M48,23.7c-10.7,0-17.3,5.3-20,16c4-5.3,8.7-7.3,14-6c3,0.8,5.2,3,7.6,5.4c3.9,4,8.5,8.6,18.4,8.6
			c10.7,0,17.3-5.3,20-16c-4,5.3-8.7,7.3-14,6c-3-0.8-5.2-3-7.6-5.4C62.5,28.3,57.9,23.7,48,23.7z M28,47.7c-10.7,0-17.3,5.3-20,16
			c4-5.3,8.7-7.3,14-6c3,0.8,5.2,3,7.6,5.4c3.9,4,8.5,8.6,18.4,8.6c10.7,0,17.3-5.3,20-16c-4,5.3-8.7,7.3-14,6c-3-0.8-5.2-3-7.6-5.4
			C42.5,52.3,37.9,47.7,28,47.7z"/>
	</g>
</g>
</svg>
