<?xml version="1.0" encoding="utf-8"?>
<!-- Generator: Adobe Illustrator 28.2.0, SVG Export Plug-In . SVG Version: 6.00 Build 0)  -->
<svg version="1.1" id="Layer_1" xmlns="http://www.w3.org/2000/svg" xmlns:xlink="http://www.w3.org/1999/xlink" x="0px" y="0px"
	 viewBox="0 0 96 96" style="enable-background:new 0 0 96 96;" xml:space="preserve">
<style type="text/css">
	.st0{fill:#FFFFFF;}
</style>
<path class="st0" d="M87.6,31c-0.1-0.3-0.3-0.6-0.6-0.6l-19.3-5.5c-0.1,0-0.1-0.1-0.2-0.1s-0.2,0-0.2,0l-38-10.9
	c-0.1,0-0.1-0.1-0.2-0.1s-0.2,0-0.2,0L9.5,8C9.2,7.9,8.9,8,8.7,8.2C8.4,8.5,8.3,8.8,8.4,9.1l9.7,39.1l0,0l0,0l9.7,39.1
	c0.1,0.3,0.3,0.6,0.6,0.6c0.1,0,0.2,0,0.2,0c0.2,0,0.5-0.1,0.6-0.2l58.1-55.9C87.6,31.6,87.7,31.3,87.6,31z M58.1,57.4L54,40.7
	l16.6,4.8L58.1,57.4z M43.7,71.3l-4-16.4l16.2,4.7L43.7,71.3z M20.2,49.3L36.4,54L24.2,65.7L20.2,49.3z M15.3,29.6l16.5,4.7
	l-12.4,12L15.3,29.6z M38.9,51.6l-4.1-16.4l16.3,4.7L38.9,51.6z M37.2,52.3l-16.6-4.8l12.4-12L37.2,52.3z M52.3,41.2l4.1,16.7
	l-16.5-4.8L52.3,41.2z M35.3,33.5l12.1-11.7l4,16.3L35.3,33.5z M34.1,32.2l-4-16.4l16.2,4.7L34.1,32.2z M32.3,32.6L16.1,28
	l12.2-11.8L32.3,32.6z M37.9,55L42,71.4l-16.3-4.7L37.9,55z M54.5,39l12.2-11.8l4.1,16.4L54.5,39z M53.3,37.8l-4.1-16.4L65.5,26
	L53.3,37.8z M27,14.9l-12.4,12l-4.1-16.7L27,14.9z M29.1,85.4l-4.2-16.9l16.8,4.8L29.1,85.4z M72.6,43.5l-4.1-16.7L85,31.6
	L72.6,43.5z"/>
</svg>
