<?xml version="1.0" encoding="utf-8"?>
<!-- Generator: Adobe Illustrator 28.2.0, SVG Export Plug-In . SVG Version: 6.00 Build 0)  -->
<svg version="1.1" id="Layer_1" xmlns="http://www.w3.org/2000/svg" xmlns:xlink="http://www.w3.org/1999/xlink" x="0px" y="0px"
	 viewBox="0 0 96 96" style="enable-background:new 0 0 96 96;" xml:space="preserve">
<style type="text/css">
	.st0{fill:#3178C6;}
	.st1{fill-rule:evenodd;clip-rule:evenodd;fill:#FFFFFF;}
</style>
<g>
	<path class="st0" d="M15.8,8h64.4c4.3,0,7.8,3.5,7.8,7.8v64.4c0,4.3-3.5,7.8-7.8,7.8H15.8C11.5,88,8,84.5,8,80.2V15.8
		C8,11.5,11.5,8,15.8,8z"/>
	<path class="st1" d="M57.5,71.7v7.8c1.3,0.7,2.8,1.1,4.5,1.5c1.7,0.3,3.6,0.5,5.5,0.5c1.9,0,3.7-0.2,5.3-0.5
		c1.7-0.4,3.2-0.9,4.4-1.8c1.3-0.8,2.3-1.9,3-3.2c0.7-1.3,1.1-3,1.1-4.9c0-1.4-0.2-2.7-0.6-3.7c-0.4-1.1-1-2-1.8-2.8
		c-0.8-0.8-1.8-1.6-2.9-2.2c-1.1-0.7-2.4-1.3-3.8-1.9c-1-0.4-1.9-0.8-2.8-1.2c-0.8-0.4-1.5-0.8-2.1-1.2c-0.6-0.4-1-0.9-1.3-1.3
		c-0.3-0.5-0.5-1-0.5-1.6c0-0.5,0.1-1,0.4-1.5c0.3-0.4,0.7-0.8,1.2-1.1c0.5-0.3,1.1-0.5,1.9-0.7c0.7-0.2,1.5-0.3,2.4-0.3
		c0.7,0,1.3,0,2.1,0.1c0.7,0.1,1.5,0.2,2.2,0.5c0.7,0.2,1.4,0.5,2.1,0.8c0.7,0.3,1.3,0.7,1.9,1.1v-7.3c-1.2-0.5-2.5-0.8-3.9-1
		c-1.4-0.2-3-0.3-4.9-0.3c-1.9,0-3.6,0.2-5.3,0.6c-1.7,0.4-3.1,1-4.4,1.9c-1.3,0.8-2.3,1.9-3,3.2c-0.7,1.3-1.1,2.9-1.1,4.7
		c0,2.3,0.7,4.3,2,6c1.3,1.6,3.4,3,6.1,4.2c1.1,0.4,2.1,0.9,3,1.3c0.9,0.4,1.7,0.9,2.4,1.3c0.7,0.5,1.2,1,1.6,1.5
		c0.4,0.5,0.6,1.1,0.6,1.8c0,0.5-0.1,1-0.4,1.4c-0.2,0.4-0.6,0.8-1.1,1.1c-0.5,0.3-1.1,0.6-1.9,0.7c-0.7,0.2-1.6,0.3-2.6,0.3
		c-1.7,0-3.4-0.3-5-0.9C60.5,73.7,58.9,72.8,57.5,71.7L57.5,71.7z M44.4,52.4h10V46h-28v6.4h10V81h7.9V52.4z"/>
</g>
</svg>
